<svg version="1.1" xmlns="http://www.w3.org/2000/svg" xmlns:xlink="http://www.w3.org/1999/xlink" width="755.88817" height="690.98372" viewBox="0,0,755.88817,690.98372"><defs><linearGradient x1="323.02462" y1="-17.10995" x2="323.02462" y2="755.4299" gradientUnits="userSpaceOnUse" id="color-1"><stop offset="0" stop-color="#1e2131"/><stop offset="1" stop-color="#110f15"/></linearGradient></defs><g transform="translate(54.91949,17.10995)"><g data-paper-data="{&quot;isPaintingLayer&quot;:true}" fill-rule="nonzero" stroke="none" stroke-linecap="butt" stroke-linejoin="miter" stroke-miterlimit="10" stroke-dasharray="" stroke-dashoffset="0" style="mix-blend-mode: normal"><path d="M-45.38105,673.87374c-5.26794,0 -9.53844,-6.84598 -9.53844,-15.29093v-660.40186c0,-8.44493 4.2705,-15.29091 9.53844,-15.29091h736.81128c5.26794,0 9.53844,6.84598 9.53844,15.29091v660.40188c0,8.44493 -4.27049,15.29093 -9.53844,15.29093z" fill="url(#color-1)" stroke-width="0"/><text transform="translate(242.28442,339.85466) scale(1.64101,1.64101)" font-size="40" xml:space="preserve" fill="#f3f5ff" fill-rule="nonzero" stroke="none" stroke-width="1" stroke-linecap="butt" stroke-linejoin="miter" stroke-miterlimit="10" stroke-dasharray="" stroke-dashoffset="0" font-family="&quot;Ubuntu-Regular&quot;, Sans Serif" font-weight="normal" text-anchor="start" style="mix-blend-mode: normal"><tspan x="0" dy="0">BlonkAI</tspan></text><path d="M220.73792,307.03925v20.43413c-0.002,5.84373 -3.11241,11.24518 -8.16567,14.18016l-17.71222,10.22473c-5.06288,2.91284 -11.29299,2.91284 -16.35588,0l-17.71222,-10.22473c-5.05318,-2.92913 -8.16789,-8.32407 -8.17791,-14.16486v-20.44943c0.00309,-5.84423 3.11627,-11.24518 8.17181,-14.17716l17.71222,-10.22473c5.06308,-2.91223 11.29279,-2.91223 16.35588,0l17.71222,10.22473c5.05555,2.93194 8.16868,8.33288 8.17181,14.17716zM166.42296,300.23915l15.90475,9.18751c2.69338,1.54347 6.00315,1.54347 8.69658,0l15.90474,-9.18751l-16.67195,-9.62941c-2.21355,-1.27214 -4.93636,-1.27214 -7.14992,0zM182.0792,343.29827v-24.11035c-1.52289,-0.40065 -2.98525,-1.00336 -4.34827,-1.79206l-15.91095,-9.18445v19.26185c0.00357,2.552 1.36253,4.90995 3.56887,6.19254zM211.53197,327.47329v-19.26185l-15.90475,9.18445c-1.36298,0.78864 -2.82539,1.39137 -4.34824,1.79206v24.11036l16.68421,-9.63244c2.20634,-1.2826 3.56519,-3.64057 3.56883,-6.19255z" fill="#f3f5ff" stroke-width="1"/><text transform="translate(260.49163,382.24761) scale(0.77063,0.77063)" font-size="40" xml:space="preserve" fill="#f3f5ff" fill-rule="nonzero" stroke="none" stroke-width="1" stroke-linecap="butt" stroke-linejoin="miter" stroke-miterlimit="10" stroke-dasharray="" stroke-dashoffset="0" font-family="&quot;Ubuntu-Regular&quot;, Sans Serif" font-weight="normal" text-anchor="start" style="mix-blend-mode: normal"><tspan x="0" dy="0">Loading</tspan></text></g></g></svg>